<svg width="36" height="33" viewBox="0 0 36 33" fill="none" xmlns="http://www.w3.org/2000/svg">
<path d="M17.2931 5.20078L17.7666 5.84948L18.1397 5.13831C18.3991 4.64406 19.1533 3.87993 20.3052 3.13539C21.4387 2.40279 22.8967 1.7289 24.4947 1.37818C26.0911 1.0278 27.813 1.00274 29.4912 1.54779C31.1643 2.09117 32.8255 3.21111 34.2937 5.2027C35.6925 7.10016 35.8001 9.4337 35.001 12.015C34.1995 14.6036 32.502 17.3769 30.3972 20.0513C26.3227 25.2285 20.818 29.9156 17.7207 32.0087C14.0163 29.0943 8.66667 24.2756 4.90925 19.2322C2.9806 16.6434 1.49549 14.027 0.850637 11.602C0.208919 9.18871 0.40799 7.01104 1.77605 5.20826C4.50162 1.61662 7.93337 1.05356 10.9256 1.66466C12.4334 1.97259 13.8287 2.5806 14.9532 3.25833C16.0863 3.94127 16.9075 4.67249 17.2931 5.20078Z" stroke="#B00303"/>
</svg>
