<svg width="10" height="31" viewBox="0 0 10 31" fill="none" xmlns="http://www.w3.org/2000/svg">
<g clip-path="url(#clip0_532_106)">
<rect width="9" height="31" transform="translate(0.5)" fill="white"/>
<line x1="5" y1="-1.5" x2="5" y2="31.5" stroke="#B00303"/>
<path d="M4.52163 13.2086L5.01279 13.9656L5.39407 13.1481C5.39409 13.1482 5.39854 13.1394 5.41108 13.1221C5.42448 13.1036 5.44395 13.0797 5.47046 13.0514C5.52377 12.9945 5.59759 12.9285 5.68951 12.8617C5.87499 12.7268 6.111 12.6053 6.36186 12.5433C6.61008 12.4821 6.85881 12.482 7.09284 12.5675C7.32323 12.6516 7.58157 12.834 7.82827 13.2105C8.01791 13.4999 8.05553 13.8862 7.91654 14.3913C7.77697 14.8984 7.47375 15.4638 7.07727 16.0305C6.41573 16.9762 5.55187 17.8455 4.9614 18.345C4.28197 17.7147 3.41717 16.8014 2.79349 15.8596C2.43117 15.3125 2.16891 14.7834 2.05804 14.3143C1.94855 13.8511 1.9955 13.4932 2.18241 13.2161C2.41052 12.8779 2.64679 12.713 2.85749 12.6357C3.07154 12.5572 3.30008 12.5543 3.53191 12.6076C3.76628 12.6614 3.99146 12.7703 4.17715 12.8962C4.36978 13.0268 4.48444 13.1513 4.52163 13.2086Z" fill="#B00303" stroke="#B00303"/>
</g>
<defs>
<clipPath id="clip0_532_106">
<rect width="9" height="31" fill="white" transform="translate(0.5)"/>
</clipPath>
</defs>
</svg>
