<svg width="34" height="34" viewBox="0 0 34 34" fill="none" xmlns="http://www.w3.org/2000/svg">
<path d="M13.8616 11.6795L14.6217 11.9387L14.5189 11.1422C14.4474 10.5887 14.6261 9.53001 15.1417 8.25899C15.649 7.00835 16.4557 5.61943 17.5625 4.41472C18.6684 3.21115 20.0637 2.20191 21.7507 1.68448C23.4324 1.16864 25.4356 1.13164 27.7812 1.9191C30.0159 2.66935 31.444 4.51803 32.272 7.0903C33.1022 9.66977 33.3049 12.915 33.1174 16.3132C32.7543 22.8914 30.9391 29.8896 29.6052 33.3818C24.8988 33.1229 17.7522 32.2496 11.7799 30.2781C8.71442 29.2661 5.99617 27.9768 4.07573 26.3617C2.16462 24.7545 1.07715 22.8573 1.16201 20.5958C1.33107 16.0902 3.81735 13.6587 6.61797 12.4408C8.02923 11.8271 9.52073 11.5237 10.8305 11.4329C12.1504 11.3413 13.2426 11.4684 13.8616 11.6795Z" stroke="#B00303"/>
</svg>
