<svg width="36" height="35" viewBox="0 0 36 35" fill="none" xmlns="http://www.w3.org/2000/svg">
<path d="M18.9786 8.89221L19.1489 9.67705L19.778 9.17784C20.2152 8.83089 21.2142 8.43754 22.569 8.22311C23.902 8.01212 25.508 7.9862 27.1111 8.31245C28.7127 8.63839 30.2973 9.31258 31.6112 10.4904C32.9211 11.6646 33.9866 13.3612 34.5228 15.7767C35.0337 18.078 34.1873 20.2553 32.4115 22.2921C30.6307 24.3346 27.9558 26.1832 24.9484 27.7765C19.1268 30.8608 12.1958 32.918 8.5163 33.578C6.30893 29.4134 3.36818 22.8415 1.97432 16.7086C1.25886 13.5607 0.960175 10.567 1.35232 8.08855C1.74255 5.62212 2.80621 3.71149 4.787 2.61692C8.7333 0.436238 12.0992 1.31075 14.5878 3.08092C15.8418 3.97292 16.8715 5.09377 17.6254 6.16873C18.385 7.25195 18.8399 8.25303 18.9786 8.89221Z" stroke="#B00303"/>
</svg>
